ffmpeg started on 2025-05-05 at 11:16:05
Report written to "D:\Convert\FFMetrics\reports\ssim_report-6.txt"
Log level: 32
Command line:
ffmpeg -hide_banner -nostdin -i "G:\\\xc0\xed\xe8\xec\xe5\\\xce\xed\xe3\xee\xe8\xed\xe3\xe8\\!_35_\xcb\xe5\xf2\xee_2024\\JamClub-1\\\xdd\xf2\xee\xf2 \xec\xe8\xf0 \xf1\xeb\xe8\xf8\xea\xee\xec \xed\xe5\xf1\xee\xe2\xe5\xf0\xf8\xe5\xed\xe5\xed\\JamClub_Kono_Sekai_wa_Fukanzen_Sugiru_11_1080p_HEVC.mkv" -i "G:\\\xc0\xed\xe8\xec\xe5\\\xce\xed\xe3\xee\xe8\xed\xe3\xe8\\!_35_\xcb\xe5\xf2\xee_2024\\JamClub-1\\\xdd\xf2\xee\xf2 \xec\xe8\xf0 \xf1\xeb\xe8\xf8\xea\xee\xec \xed\xe5\xf1\xee\xe2\xe5\xf0\xf8\xe5\xed\xe5\xed\\JamClub_Kono_Sekai_wa_Fukanzen_Sugiru_11_1080p.mp4" -lavfi "[0:v]settb=AVTB,setpts=PTS-STARTPTS,format=pix_fmts=yuv420p10,fps=24000/1001,scale=1920:1080:flags=bicubic[main];[1:v]settb=AVTB,setpts=PTS-STARTPTS,format=pix_fmts=yuv420p,fps=24000/1001,scale=1920:1080:flags=bicubic[ref];[main][ref]ssim=eof_action=endall:stats_file='D\\:/Convert/FFMetrics/logs/ssim_logfile-6.txt'" -f null -
Input #0, matroska,webm, from 'G:\Аниме\Онгоинги\!_35_Лето_2024\JamClub-1\Этот мир слишком несовершенен\JamClub_Kono_Sekai_wa_Fukanzen_Sugiru_11_1080p_HEVC.mkv':
  Metadata:
    COMPATIBLE_BRANDS: isomiso2avc1mp41
    MAJOR_BRAND     : isom
    MINOR_VERSION   : 512
    ENCODER         : Lavf61.7.100
  Duration: 00:24:27.37, start: -0.001000, bitrate: 1294 kb/s
  Stream #0:0: Video: hevc (Main 10), yuv420p10le(tv, bt709, progressive), 1920x1080 [SAR 1:1 DAR 16:9], 23.98 fps, 23.98 tbr, 1k tbn (default)
      Metadata:
        HANDLER_NAME    : VideoHandler
        VENDOR_ID       : [0][0][0][0]
        ENCODER         : Lavc61.19.100 libx265
        BPS             : 1095769
        DURATION        : 00:24:27.257708333
        NUMBER_OF_FRAMES: 35179
        NUMBER_OF_BYTES : 200971861
        _STATISTICS_WRITING_APP: mkvpropedit v66.0.0 ('Josie') 64-bit
        _STATISTICS_WRITING_DATE_UTC: 2025-05-04 17:31:52
        _STATISTICS_TAGS: BPS DURATION NUMBER_OF_FRAMES NUMBER_OF_BYTES
  Stream #0:1(eng): Audio: aac (LC), 48000 Hz, stereo, fltp (default)
      Metadata:
        HANDLER_NAME    : SoundHandler
        VENDOR_ID       : [0][0][0][0]
        ENCODER         : Lavc61.19.100 aac
        BPS             : 194734
        DURATION        : 00:24:27.331000000
        NUMBER_OF_FRAMES: 68782
        NUMBER_OF_BYTES : 35717493
        _STATISTICS_WRITING_APP: mkvpropedit v66.0.0 ('Josie') 64-bit
        _STATISTICS_WRITING_DATE_UTC: 2025-05-04 17:31:52
        _STATISTICS_TAGS: BPS DURATION NUMBER_OF_FRAMES NUMBER_OF_BYTES
Input #1, mov,mp4,m4a,3gp,3g2,mj2, from 'G:\Аниме\Онгоинги\!_35_Лето_2024\JamClub-1\Этот мир слишком несовершенен\JamClub_Kono_Sekai_wa_Fukanzen_Sugiru_11_1080p.mp4':
  Metadata:
    major_brand     : isom
    minor_version   : 512
    compatible_brands: isomiso2avc1mp41
    encoder         : Lavf60.16.100
  Duration: 00:24:27.35, start: 0.000000, bitrate: 3723 kb/s
  Stream #1:0[0x1](und): Video: h264 (High) (avc1 / 0x31637661), yuv420p(progressive), 1920x1080 [SAR 1:1 DAR 16:9], 3525 kb/s, 23.98 fps, 23.98 tbr, 90k tbn (default)
      Metadata:
        handler_name    : VideoHandler
        vendor_id       : [0][0][0][0]
  Stream #1:1[0x2](eng): Audio: aac (LC) (mp4a / 0x6134706D), 48000 Hz, stereo, fltp, 191 kb/s (default)
      Metadata:
        handler_name    : SoundHandler
        vendor_id       : [0][0][0][0]
Stream mapping:
  Stream #0:0 (hevc) -> settb:default
  Stream #1:0 (h264) -> settb:default
  ssim:default -> Stream #0:0 (wrapped_avframe)
  Stream #0:1 -> #0:1 (aac (native) -> pcm_s16le (native))
Output #0, null, to 'pipe:':
  Metadata:
    COMPATIBLE_BRANDS: isomiso2avc1mp41
    MAJOR_BRAND     : isom
    MINOR_VERSION   : 512
    encoder         : Lavf61.7.100
  Stream #0:0: Video: wrapped_avframe, yuv420p10le(tv, bt709, progressive), 1920x1080 [SAR 1:1 DAR 16:9], q=2-31, 200 kb/s, 23.98 fps, 23.98 tbn
      Metadata:
        encoder         : Lavc61.19.100 wrapped_avframe
  Stream #0:1(eng): Audio: pcm_s16le, 48000 Hz, stereo, s16, 1536 kb/s (default)
      Metadata:
        HANDLER_NAME    : SoundHandler
        VENDOR_ID       : [0][0][0][0]
        _STATISTICS_TAGS: BPS DURATION NUMBER_OF_FRAMES NUMBER_OF_BYTES
        BPS             : 194734
        DURATION        : 00:24:27.331000000
        NUMBER_OF_FRAMES: 68782
        NUMBER_OF_BYTES : 35717493
        _STATISTICS_WRITING_APP: mkvpropedit v66.0.0 ('Josie') 64-bit
        _STATISTICS_WRITING_DATE_UTC: 2025-05-04 17:31:52
        encoder         : Lavc61.19.100 pcm_s16le
frame=  101 fps=0.0 q=-0.0 size=N/A time=00:00:04.21 bitrate=N/A speed= 8.2x    frame=  261 fps=251 q=-0.0 size=N/A time=00:00:10.88 bitrate=N/A speed=10.5x    frame=  439 fps=284 q=-0.0 size=N/A time=00:00:18.30 bitrate=N/A speed=11.8x    frame=  621 fps=300 q=-0.0 size=N/A time=00:00:25.90 bitrate=N/A speed=12.5x    frame=  836 fps=324 q=-0.0 size=N/A time=00:00:34.86 bitrate=N/A speed=13.5x    frame= 1083 fps=350 q=-0.0 size=N/A time=00:00:45.17 bitrate=N/A speed=14.6x    frame= 1310 fps=363 q=-0.0 size=N/A time=00:00:54.63 bitrate=N/A speed=15.1x    frame= 1509 fps=365 q=-0.0 size=N/A time=00:01:02.93 bitrate=N/A speed=15.2x    frame= 1736 fps=374 q=-0.0 size=N/A time=00:01:12.40 bitrate=N/A speed=15.6x    frame= 1971 fps=382 q=-0.0 size=N/A time=00:01:22.20 bitrate=N/A speed=15.9x    frame= 2198 fps=388 q=-0.0 size=N/A time=00:01:31.67 bitrate=N/A speed=16.2x    frame= 2449 fps=396 q=-0.0 size=N/A time=00:01:42.14 bitrate=N/A speed=16.5x    frame= 2624 fps=391 q=-0.0 size=N/A time=00:01:49.44 bitrate=N/A speed=16.3x    frame= 2729 fps=377 q=-0.0 size=N/A time=00:01:53.82 bitrate=N/A speed=15.7x    frame= 2876 fps=371 q=-0.0 size=N/A time=00:01:59.95 bitrate=N/A speed=15.5x    frame= 3041 fps=368 q=-0.0 size=N/A time=00:02:06.83 bitrate=N/A speed=15.3x    frame= 3271 fps=372 q=-0.0 size=N/A time=00:02:16.42 bitrate=N/A speed=15.5x    frame= 3496 fps=375 q=-0.0 size=N/A time=00:02:25.81 bitrate=N/A speed=15.7x    frame= 3678 fps=374 q=-0.0 size=N/A time=00:02:33.40 bitrate=N/A speed=15.6x    frame= 3900 fps=377 q=-0.0 size=N/A time=00:02:42.66 bitrate=N/A speed=15.7x    frame= 4074 fps=375 q=-0.0 size=N/A time=00:02:49.91 bitrate=N/A speed=15.6x    frame= 4266 fps=375 q=-0.0 size=N/A time=00:02:57.92 bitrate=N/A speed=15.6x    frame= 4445 fps=374 q=-0.0 size=N/A time=00:03:05.39 bitrate=N/A speed=15.6x    frame= 4664 fps=376 q=-0.0 size=N/A time=00:03:14.52 bitrate=N/A speed=15.7x    frame= 4909 fps=380 q=-0.0 size=N/A time=00:03:24.74 bitrate=N/A speed=15.8x    frame= 5194 fps=386 q=-0.0 size=N/A time=00:03:36.63 bitrate=N/A speed=16.1x    frame= 5450 fps=391 q=-0.0 size=N/A time=00:03:47.31 bitrate=N/A speed=16.3x    frame= 5700 fps=394 q=-0.0 size=N/A time=00:03:57.73 bitrate=N/A speed=16.4x    frame= 5903 fps=394 q=-0.0 size=N/A time=00:04:06.20 bitrate=N/A speed=16.4x    frame= 6122 fps=395 q=-0.0 size=N/A time=00:04:15.33 bitrate=N/A speed=16.5x    frame= 6358 fps=397 q=-0.0 size=N/A time=00:04:25.18 bitrate=N/A speed=16.6x    frame= 6617 fps=400 q=-0.0 size=N/A time=00:04:35.98 bitrate=N/A speed=16.7x    frame= 6856 fps=402 q=-0.0 size=N/A time=00:04:45.95 bitrate=N/A speed=16.8x    frame= 7094 fps=404 q=-0.0 size=N/A time=00:04:55.87 bitrate=N/A speed=16.8x    frame= 7351 fps=407 q=-0.0 size=N/A time=00:05:06.59 bitrate=N/A speed=  17x    frame= 7586 fps=408 q=-0.0 size=N/A time=00:05:16.39 bitrate=N/A speed=  17x    frame= 7865 fps=411 q=-0.0 size=N/A time=00:05:28.03 bitrate=N/A speed=17.2x    frame= 8127 fps=414 q=-0.0 size=N/A time=00:05:38.96 bitrate=N/A speed=17.3x    frame= 8408 fps=417 q=-0.0 size=N/A time=00:05:50.68 bitrate=N/A speed=17.4x    frame= 8671 fps=420 q=-0.0 size=N/A time=00:06:01.65 bitrate=N/A speed=17.5x    frame= 8942 fps=422 q=-0.0 size=N/A time=00:06:12.95 bitrate=N/A speed=17.6x    frame= 9215 fps=425 q=-0.0 size=N/A time=00:06:24.34 bitrate=N/A speed=17.7x    frame= 9483 fps=427 q=-0.0 size=N/A time=00:06:35.52 bitrate=N/A speed=17.8x    frame= 9750 fps=429 q=-0.0 size=N/A time=00:06:46.65 bitrate=N/A speed=17.9x    frame=10008 fps=431 q=-0.0 size=N/A time=00:06:57.41 bitrate=N/A speed=  18x    frame=10261 fps=432 q=-0.0 size=N/A time=00:07:07.96 bitrate=N/A speed=  18x    frame=10500 fps=433 q=-0.0 size=N/A time=00:07:17.93 bitrate=N/A speed=  18x    frame=10753 fps=434 q=-0.0 size=N/A time=00:07:28.48 bitrate=N/A speed=18.1x    frame=11016 fps=436 q=-0.0 size=N/A time=00:07:39.45 bitrate=N/A speed=18.2x    frame=11280 fps=437 q=-0.0 size=N/A time=00:07:50.47 bitrate=N/A speed=18.2x    frame=11537 fps=438 q=-0.0 size=N/A time=00:08:01.18 bitrate=N/A speed=18.3x    frame=11796 fps=439 q=-0.0 size=N/A time=00:08:11.99 bitrate=N/A speed=18.3x    frame=12035 fps=440 q=-0.0 size=N/A time=00:08:21.95 bitrate=N/A speed=18.4x    frame=12286 fps=441 q=-0.0 size=N/A time=00:08:32.42 bitrate=N/A speed=18.4x    frame=12537 fps=441 q=-0.0 size=N/A time=00:08:42.89 bitrate=N/A speed=18.4x    frame=12766 fps=442 q=-0.0 size=N/A time=00:08:52.44 bitrate=N/A speed=18.4x    frame=13020 fps=443 q=-0.0 size=N/A time=00:09:03.04 bitrate=N/A speed=18.5x    frame=13286 fps=444 q=-0.0 size=N/A time=00:09:14.13 bitrate=N/A speed=18.5x    frame=13560 fps=445 q=-0.0 size=N/A time=00:09:25.56 bitrate=N/A speed=18.6x    frame=13812 fps=446 q=-0.0 size=N/A time=00:09:36.07 bitrate=N/A speed=18.6x    frame=14068 fps=447 q=-0.0 size=N/A time=00:09:46.75 bitrate=N/A speed=18.6x    frame=14341 fps=448 q=-0.0 size=N/A time=00:09:58.13 bitrate=N/A speed=18.7x    frame=14596 fps=449 q=-0.0 size=N/A time=00:10:08.77 bitrate=N/A speed=18.7x    frame=14873 fps=450 q=-0.0 size=N/A time=00:10:20.32 bitrate=N/A speed=18.8x    frame=15131 fps=451 q=-0.0 size=N/A time=00:10:31.08 bitrate=N/A speed=18.8x    frame=15353 fps=451 q=-0.0 size=N/A time=00:10:40.34 bitrate=N/A speed=18.8x    frame=15603 fps=451 q=-0.0 size=N/A time=00:10:50.77 bitrate=N/A speed=18.8x    frame=15805 fps=450 q=-0.0 size=N/A time=00:10:59.20 bitrate=N/A speed=18.8x    frame=16030 fps=450 q=-0.0 size=N/A time=00:11:08.58 bitrate=N/A speed=18.8x    frame=16252 fps=450 q=-0.0 size=N/A time=00:11:17.84 bitrate=N/A speed=18.8x    frame=16475 fps=450 q=-0.0 size=N/A time=00:11:27.14 bitrate=N/A speed=18.8x    frame=16646 fps=448 q=-0.0 size=N/A time=00:11:34.27 bitrate=N/A speed=18.7x    frame=16885 fps=448 q=-0.0 size=N/A time=00:11:44.24 bitrate=N/A speed=18.7x    frame=17072 fps=447 q=-0.0 size=N/A time=00:11:52.04 bitrate=N/A speed=18.6x    frame=17281 fps=447 q=-0.0 size=N/A time=00:12:00.76 bitrate=N/A speed=18.6x    frame=17517 fps=447 q=-0.0 size=N/A time=00:12:10.60 bitrate=N/A speed=18.6x    frame=17747 fps=447 q=-0.0 size=N/A time=00:12:20.19 bitrate=N/A speed=18.6x    frame=17976 fps=446 q=-0.0 size=N/A time=00:12:29.74 bitrate=N/A speed=18.6x    frame=18201 fps=446 q=-0.0 size=N/A time=00:12:39.13 bitrate=N/A speed=18.6x    frame=18439 fps=446 q=-0.0 size=N/A time=00:12:49.05 bitrate=N/A speed=18.6x    frame=18678 fps=447 q=-0.0 size=N/A time=00:12:59.02 bitrate=N/A speed=18.6x    frame=18902 fps=447 q=-0.0 size=N/A time=00:13:08.37 bitrate=N/A speed=18.6x    frame=19163 fps=447 q=-0.0 size=N/A time=00:13:19.25 bitrate=N/A speed=18.7x    frame=19390 fps=447 q=-0.0 size=N/A time=00:13:28.72 bitrate=N/A speed=18.7x    frame=19613 fps=447 q=-0.0 size=N/A time=00:13:38.02 bitrate=N/A speed=18.6x    frame=19873 fps=448 q=-0.0 size=N/A time=00:13:48.86 bitrate=N/A speed=18.7x    frame=20088 fps=447 q=-0.0 size=N/A time=00:13:57.83 bitrate=N/A speed=18.7x    frame=20310 fps=447 q=-0.0 size=N/A time=00:14:07.09 bitrate=N/A speed=18.7x    frame=20567 fps=448 q=-0.0 size=N/A time=00:14:17.81 bitrate=N/A speed=18.7x    frame=20810 fps=448 q=-0.0 size=N/A time=00:14:27.95 bitrate=N/A speed=18.7x    frame=21072 fps=449 q=-0.0 size=N/A time=00:14:38.87 bitrate=N/A speed=18.7x    frame=21318 fps=449 q=-0.0 size=N/A time=00:14:49.13 bitrate=N/A speed=18.7x    frame=21595 fps=450 q=-0.0 size=N/A time=00:15:00.69 bitrate=N/A speed=18.8x    frame=21840 fps=450 q=-0.0 size=N/A time=00:15:10.91 bitrate=N/A speed=18.8x    frame=22067 fps=450 q=-0.0 size=N/A time=00:15:20.37 bitrate=N/A speed=18.8x    frame=22311 fps=450 q=-0.0 size=N/A time=00:15:30.55 bitrate=N/A speed=18.8x    frame=22565 fps=451 q=-0.0 size=N/A time=00:15:41.14 bitrate=N/A speed=18.8x    frame=22838 fps=452 q=-0.0 size=N/A time=00:15:52.53 bitrate=N/A speed=18.8x    frame=23073 fps=452 q=-0.0 size=N/A time=00:16:02.33 bitrate=N/A speed=18.8x    frame=23290 fps=451 q=-0.0 size=N/A time=00:16:11.38 bitrate=N/A speed=18.8x    frame=23542 fps=452 q=-0.0 size=N/A time=00:16:21.89 bitrate=N/A speed=18.8x    frame=23815 fps=452 q=-0.0 size=N/A time=00:16:33.28 bitrate=N/A speed=18.9x    frame=24088 fps=453 q=-0.0 size=N/A time=00:16:44.67 bitrate=N/A speed=18.9x    frame=24339 fps=453 q=-0.0 size=N/A time=00:16:55.13 bitrate=N/A speed=18.9x    frame=24595 fps=454 q=-0.0 size=N/A time=00:17:05.81 bitrate=N/A speed=18.9x    frame=24863 fps=454 q=-0.0 size=N/A time=00:17:16.99 bitrate=N/A speed=  19x    frame=25086 fps=454 q=-0.0 size=N/A time=00:17:26.29 bitrate=N/A speed=18.9x    frame=25353 fps=455 q=-0.0 size=N/A time=00:17:37.43 bitrate=N/A speed=  19x    frame=25585 fps=455 q=-0.0 size=N/A time=00:17:47.10 bitrate=N/A speed=  19x    frame=25855 fps=455 q=-0.0 size=N/A time=00:17:58.36 bitrate=N/A speed=  19x    frame=26103 fps=456 q=-0.0 size=N/A time=00:18:08.71 bitrate=N/A speed=  19x    frame=26363 fps=456 q=-0.0 size=N/A time=00:18:19.55 bitrate=N/A speed=  19x    frame=26592 fps=456 q=-0.0 size=N/A time=00:18:29.10 bitrate=N/A speed=  19x    frame=26842 fps=456 q=-0.0 size=N/A time=00:18:39.53 bitrate=N/A speed=  19x    frame=27073 fps=456 q=-0.0 size=N/A time=00:18:49.16 bitrate=N/A speed=  19x    frame=27319 fps=456 q=-0.0 size=N/A time=00:18:59.42 bitrate=N/A speed=  19x    frame=27556 fps=456 q=-0.0 size=N/A time=00:19:09.31 bitrate=N/A speed=  19x    frame=27810 fps=457 q=-0.0 size=N/A time=00:19:19.90 bitrate=N/A speed=  19x    frame=28063 fps=457 q=-0.0 size=N/A time=00:19:30.46 bitrate=N/A speed=19.1x    frame=28319 fps=457 q=-0.0 size=N/A time=00:19:41.13 bitrate=N/A speed=19.1x    frame=28559 fps=457 q=-0.0 size=N/A time=00:19:51.14 bitrate=N/A speed=19.1x    frame=28794 fps=457 q=-0.0 size=N/A time=00:20:00.94 bitrate=N/A speed=19.1x    frame=29046 fps=458 q=-0.0 size=N/A time=00:20:11.46 bitrate=N/A speed=19.1x    frame=29274 fps=458 q=-0.0 size=N/A time=00:20:20.96 bitrate=N/A speed=19.1x    frame=29488 fps=457 q=-0.0 size=N/A time=00:20:29.89 bitrate=N/A speed=19.1x    frame=29735 fps=457 q=-0.0 size=N/A time=00:20:40.19 bitrate=N/A speed=19.1x    frame=29992 fps=458 q=-0.0 size=N/A time=00:20:50.91 bitrate=N/A speed=19.1x    frame=30231 fps=458 q=-0.0 size=N/A time=00:21:00.88 bitrate=N/A speed=19.1x    frame=30461 fps=458 q=-0.0 size=N/A time=00:21:10.47 bitrate=N/A speed=19.1x    frame=30640 fps=457 q=-0.0 size=N/A time=00:21:17.94 bitrate=N/A speed=19.1x    frame=30860 fps=457 q=-0.0 size=N/A time=00:21:27.11 bitrate=N/A speed=  19x    frame=31102 fps=457 q=-0.0 size=N/A time=00:21:37.21 bitrate=N/A speed=  19x    frame=31363 fps=457 q=-0.0 size=N/A time=00:21:48.09 bitrate=N/A speed=19.1x    frame=31597 fps=457 q=-0.0 size=N/A time=00:21:57.85 bitrate=N/A speed=19.1x    frame=31848 fps=457 q=-0.0 size=N/A time=00:22:08.32 bitrate=N/A speed=19.1x    frame=32096 fps=457 q=-0.0 size=N/A time=00:22:18.67 bitrate=N/A speed=19.1x    frame=32354 fps=458 q=-0.0 size=N/A time=00:22:29.43 bitrate=N/A speed=19.1x    frame=32583 fps=458 q=-0.0 size=N/A time=00:22:38.98 bitrate=N/A speed=19.1x    frame=32841 fps=458 q=-0.0 size=N/A time=00:22:49.74 bitrate=N/A speed=19.1x    frame=33050 fps=457 q=-0.0 size=N/A time=00:22:58.46 bitrate=N/A speed=19.1x    frame=33261 fps=457 q=-0.0 size=N/A time=00:23:07.26 bitrate=N/A speed=19.1x    frame=33479 fps=457 q=-0.0 size=N/A time=00:23:16.35 bitrate=N/A speed=19.1x    frame=33698 fps=457 q=-0.0 size=N/A time=00:23:25.48 bitrate=N/A speed=  19x    frame=33910 fps=456 q=-0.0 size=N/A time=00:23:34.32 bitrate=N/A speed=  19x    frame=34055 fps=455 q=-0.0 size=N/A time=00:23:40.37 bitrate=N/A speed=  19x    frame=34268 fps=455 q=-0.0 size=N/A time=00:23:49.26 bitrate=N/A speed=  19x    frame=34450 fps=454 q=-0.0 size=N/A time=00:23:56.85 bitrate=N/A speed=18.9x    frame=34637 fps=453 q=-0.0 size=N/A time=00:24:04.65 bitrate=N/A speed=18.9x    frame=34866 fps=453 q=-0.0 size=N/A time=00:24:14.20 bitrate=N/A speed=18.9x    frame=35083 fps=453 q=-0.0 size=N/A time=00:24:23.25 bitrate=N/A speed=18.9x    [Parsed_ssim_10 @ 000001d868ceb440] SSIM Y:0.993766 (22.052187) U:0.994107 (22.296434) V:0.994390 (22.510098) All:0.993927 (22.165674)
[out#0/null @ 000001d866386e00] video:15116KiB audio:275128KiB subtitle:0KiB other streams:0KiB global headers:0KiB muxing overhead: unknown
frame=35179 fps=453 q=-0.0 Lsize=N/A time=00:24:27.25 bitrate=N/A speed=18.9x    
